<svg width="2576" height="334" viewBox="0 0 2576 334" fill="none" xmlns="http://www.w3.org/2000/svg" shape-rendering="geometricPrecision">
<path d="M2439.85 54.3486C2446.32 36.0333 2472.07 35.89 2478.83 53.9189L2478.99 54.3486L2487.44 78.2861H2516.89C2538.55 78.2864 2545.72 107.302 2526.56 117.396L2504.64 128.937L2514.22 161.574C2520.2 181.996 2495.3 197.015 2480.04 182.486L2479.68 182.138L2459.28 161.873L2438.29 182.29C2422.89 197.272 2397.66 181.839 2403.99 161.306L2413.99 128.83L2392.28 117.396C2373.12 107.302 2380.29 78.2864 2401.95 78.2861H2431.4L2439.85 54.3486Z" fill="#FE5C02" stroke="#FE5C02" stroke-width="40" stroke-linejoin="round"/>
<path d="M2273.06 97.2841C2286.61 97.2841 2299.38 99.3827 2310.95 104.143L2310.96 104.142C2310.96 104.146 2310.97 104.151 2310.98 104.155C2310.99 104.158 2311 104.16 2311.01 104.163L2311 104.164C2322.61 108.92 2332.56 116.066 2340.33 125.715C2348.07 135.318 2353 146.587 2355.48 158.971H2355.48C2358.08 171.502 2357.92 184.91 2355.63 198.872L2353.67 211.451C2353.26 214.041 2352.37 216.449 2351.1 218.59C2351.82 222.032 2351.63 225.652 2350.47 229.077C2345.93 242.525 2338.66 254.38 2328.72 264.404C2318.83 274.379 2306.87 281.885 2293.22 287.101C2293.2 287.109 2293.18 287.116 2293.16 287.124C2279.32 292.365 2264.17 294.784 2248 294.784C2229.24 294.784 2211.99 291.207 2197.39 282.736C2197.37 282.721 2197.34 282.706 2197.31 282.69C2182.58 274.05 2171.99 261.397 2166.02 245.38C2166.02 245.368 2166.01 245.357 2166.01 245.346C2160.08 229.367 2159.47 211.518 2162.65 192.72H2162.65C2165.74 174.326 2172.23 157.674 2182.41 143.177L2182.46 143.115C2192.63 128.747 2205.56 117.423 2221.1 109.371L2221.14 109.351C2236.98 101.184 2254.42 97.2841 2273.06 97.2841Z" fill="#FE5C02" stroke="#FE5C02" stroke-width="40" stroke-linejoin="round"/>
<path d="M2125.08 97.2841C2144.27 97.2841 2161.6 103.753 2173.73 118.816H2173.73C2173.74 118.825 2173.74 118.833 2173.75 118.842C2173.76 118.855 2173.77 118.869 2173.78 118.883H2173.78C2186.01 134.032 2188.65 152.915 2185.36 172.331L2168.27 275.275C2166.67 284.925 2158.32 292 2148.54 292H2093.66C2087.77 292 2082.18 289.404 2078.38 284.905C2077.02 283.301 2075.95 281.512 2075.16 279.612C2072.14 286.974 2064.91 292 2056.67 292H2004.17C1998.28 292 1992.69 289.404 1988.89 284.905C1987.53 283.301 1986.46 281.513 1985.67 279.613C1982.65 286.974 1975.42 292 1967.18 292H1912.29C1906.41 292 1900.83 289.413 1897.03 284.928C1893.23 280.442 1891.6 274.511 1892.56 268.712L1918.02 115.984L1918.1 115.535C1919.89 106.122 1928.12 99.2725 1937.75 99.2723H1989.85C1994.89 99.2723 1999.72 101.179 2003.39 104.555C2013.36 99.6883 2024.19 97.2841 2035.59 97.2841C2049.93 97.2841 2063.47 101.189 2074.57 110.411L2074.57 110.41C2075.54 111.216 2076.48 112.049 2077.37 112.904C2079.34 111.439 2081.4 110.057 2083.54 108.762V108.761C2083.55 108.757 2083.55 108.753 2083.56 108.749C2083.58 108.735 2083.61 108.721 2083.63 108.707V108.708C2096.22 101.048 2110.19 97.2841 2125.08 97.2841Z" fill="#FE5C02" stroke="#FE5C02" stroke-width="40" stroke-linejoin="round"/>
<path d="M1841.12 97.2841C1853.52 97.2841 1865.17 98.7516 1875.76 102.083L1875.76 102.084C1885.98 105.232 1895.3 109.919 1903.11 116.576L1903.11 116.577C1910.88 123.074 1916.83 131.133 1920.31 140.71H1920.31C1923.94 150.402 1924.6 160.559 1922.89 170.697L1922.9 170.698L1905.4 275.3C1903.78 284.938 1895.44 292 1885.67 292H1834.36C1829.92 292 1825.66 290.524 1822.19 287.871C1819.08 289.233 1815.86 290.37 1812.54 291.278L1812.54 291.28C1804.86 293.397 1796.86 294.387 1788.62 294.387C1776.81 294.387 1765.52 292.45 1755.35 287.804C1755.28 287.772 1755.21 287.739 1755.14 287.706C1744.31 282.604 1735.83 274.493 1730.56 263.623C1730.52 263.55 1730.49 263.478 1730.45 263.405C1725.03 251.872 1724.6 239.031 1726.75 226.469H1726.75C1728.51 215.967 1731.96 206.151 1737.56 197.544C1740.86 192.486 1744.7 187.93 1749.07 183.926C1748.23 183.176 1747.45 182.351 1746.74 181.456C1742.94 176.696 1741.52 170.467 1742.88 164.532C1745.76 151.939 1751.63 140.551 1760.08 130.48C1760.08 130.476 1760.09 130.473 1760.09 130.469C1769 119.861 1780.46 111.841 1793.79 106.096C1807.89 99.981 1823.86 97.2841 1841.12 97.2841Z" fill="#FE5C02" stroke="#FE5C02" stroke-width="40" stroke-linejoin="round"/>
<path d="M1662.42 45.5796C1676.34 45.5796 1689.52 47.5797 1701.76 51.8804L1701.76 51.8813C1713.77 56.0357 1724.51 62.1362 1733.63 70.3657C1733.64 70.3771 1733.66 70.3885 1733.67 70.3999C1733.68 70.4119 1733.7 70.424 1733.71 70.436H1733.71C1742.88 78.6683 1749.86 88.5649 1754.45 99.9634H1754.45C1759.2 111.584 1760.97 124.002 1760.13 136.875C1759.86 141.047 1758.33 144.851 1755.91 147.923C1758.34 151.95 1759.29 156.738 1758.53 161.448L1753.95 189.686C1753.95 189.701 1753.95 189.716 1753.95 189.731C1750.44 211.086 1742.74 230.119 1730.43 246.244L1730.43 246.245C1718.47 261.918 1703.48 274.041 1685.66 282.437C1685.64 282.447 1685.62 282.457 1685.59 282.467C1667.82 290.764 1648.52 294.784 1628.02 294.784C1605.42 294.784 1584.89 289.951 1567.47 279.158C1549.96 268.309 1537.46 252.717 1530.14 233.175C1530.13 233.152 1530.12 233.129 1530.11 233.106C1522.83 213.424 1521.85 191.217 1525.75 167.351L1525.76 167.317C1528.87 148.517 1534.58 131.337 1543.16 116.047L1543.2 115.98C1551.62 101.104 1562.07 88.2652 1574.6 77.6841C1586.97 67.1646 1600.74 59.1451 1615.83 53.7388V53.7378C1630.83 48.2981 1646.39 45.5796 1662.42 45.5796ZM1630.64 149.242C1630.47 149.507 1630.3 149.776 1630.13 150.05C1626.65 155.756 1623.89 163.243 1622.3 173C1622.3 173.024 1622.29 173.048 1622.29 173.072C1620.55 183.514 1620.64 191.174 1621.69 196.576C1621.84 197.295 1621.99 197.951 1622.16 198.55C1622.1 197.185 1622.17 195.806 1622.39 194.434L1628.76 155.059L1628.83 154.607C1629.19 152.703 1629.8 150.903 1630.64 149.242ZM1657.65 133.705C1651.71 133.705 1646.77 135.081 1642.36 137.648C1639.99 139.028 1637.72 140.778 1635.57 142.991C1639.08 140.018 1643.61 138.25 1648.5 138.25H1664.48C1664.42 137.865 1664.38 137.477 1664.35 137.084C1664.24 135.566 1663.98 134.822 1663.89 134.594C1663.78 134.55 1663.62 134.491 1663.39 134.426C1663.23 134.381 1663.07 134.334 1662.92 134.286C1662.14 134.041 1660.49 133.705 1657.65 133.705Z" fill="#FE5C02" stroke="#FE5C02" stroke-width="40" stroke-linejoin="round"/>
<path d="M1468.33 97.2841C1471.73 97.2841 1475.11 97.5607 1478.46 98.1503C1481.38 98.5938 1484.27 99.2009 1487.11 99.9774C1497.04 102.684 1503.29 112.475 1501.57 122.615L1493.62 169.547C1492.61 175.461 1489.01 180.613 1483.8 183.582C1478.59 186.551 1472.32 187.024 1466.72 184.871C1466.28 184.704 1464.92 184.293 1462.19 184.011C1462.08 183.999 1461.97 183.986 1461.86 183.973C1458.59 183.578 1456 183.421 1454.01 183.421C1451.93 183.421 1450.17 183.867 1448.44 184.781C1448.41 184.798 1448.38 184.814 1448.35 184.831C1446.61 185.738 1444.98 187.065 1443.44 189.142C1442.27 190.724 1441.27 192.853 1440.69 195.945L1427.61 275.256C1426.01 284.914 1417.66 292 1407.88 292H1352.99C1347.11 292 1341.53 289.413 1337.73 284.928C1333.93 280.442 1332.29 274.511 1333.26 268.712L1358.72 115.984L1358.8 115.535C1360.58 106.122 1368.82 99.2725 1378.44 99.2723H1431.74C1435.94 99.2723 1439.98 100.593 1443.34 102.98C1451.08 99.246 1459.46 97.2841 1468.33 97.2841Z" fill="#FE5C02" stroke="#FE5C02" stroke-width="40" stroke-linejoin="round"/>
<path d="M1282.22 97.2841C1294.62 97.2841 1306.26 98.7516 1316.85 102.083L1316.85 102.084C1327.07 105.232 1336.39 109.919 1344.21 116.576L1344.21 116.577C1351.98 123.074 1357.92 131.133 1361.41 140.71H1361.41C1365.03 150.402 1365.69 160.559 1363.99 170.697L1363.99 170.698L1346.49 275.3C1344.88 284.938 1336.54 292 1326.76 292H1275.46C1271.02 292 1266.75 290.524 1263.29 287.871C1260.17 289.233 1256.95 290.37 1253.63 291.278L1253.63 291.28C1245.96 293.397 1237.95 294.387 1229.72 294.387C1217.91 294.387 1206.61 292.45 1196.45 287.804C1196.38 287.772 1196.31 287.739 1196.24 287.706C1185.41 282.604 1176.92 274.493 1171.65 263.623C1171.62 263.55 1171.58 263.478 1171.55 263.405C1166.13 251.872 1165.7 239.031 1167.85 226.469H1167.85C1169.61 215.967 1173.05 206.151 1178.66 197.544C1181.95 192.486 1185.79 187.93 1190.17 183.926C1189.33 183.176 1188.54 182.351 1187.83 181.456C1184.03 176.696 1182.61 170.467 1183.97 164.532C1186.85 151.939 1192.72 140.551 1201.17 130.48C1201.17 130.476 1201.18 130.473 1201.18 130.469C1210.1 119.861 1221.55 111.841 1234.88 106.096C1248.98 99.981 1264.95 97.2841 1282.22 97.2841Z" fill="#FE5C02" stroke="#FE5C02" stroke-width="40" stroke-linejoin="round"/>
<path d="M1170.33 62.6818C1176.21 62.6818 1181.79 65.2665 1185.59 69.7491C1189.39 74.2318 1191.02 80.1589 1190.06 85.9562L1187.85 99.2726H1190.62C1196.51 99.2727 1202.1 101.87 1205.9 106.37C1209.7 110.871 1211.32 116.817 1210.33 122.624L1203.57 162.398C1201.94 172.012 1193.61 179.045 1183.86 179.045H1174.61L1169.31 210.977C1173.03 211.419 1176.6 212.902 1179.56 215.312C1184.01 218.928 1186.7 224.281 1186.93 230.011L1188.53 268.591C1188.91 277.819 1182.92 286.108 1174.04 288.646C1170.64 289.617 1166.42 290.612 1161.56 291.64C1155.6 292.989 1149.09 293.787 1142.17 294.158C1142.12 294.161 1142.07 294.164 1142.03 294.166C1127.52 294.839 1113.84 293.432 1102.09 288.617C1102.08 288.61 1102.06 288.602 1102.04 288.595C1089.93 283.592 1080.16 275.049 1074.69 262.706C1074.66 262.637 1074.63 262.568 1074.6 262.498C1069.51 250.666 1069.29 237.586 1071.67 224.673L1079.29 178.651C1074.9 177.769 1070.89 175.429 1067.95 171.948C1064.15 167.448 1062.53 161.501 1063.51 155.693L1070.27 115.921L1070.36 115.472C1072.17 106.088 1080.39 99.2726 1089.99 99.2726H1092.43L1095.71 79.4161L1095.79 78.965C1097.57 69.5423 1105.81 62.6818 1115.45 62.6818H1170.33Z" fill="#FE5C02" stroke="#FE5C02" stroke-width="40" stroke-linejoin="round"/>
<path d="M1003.34 45.5796C1021.89 45.5796 1038.91 48.6695 1053.5 55.9224L1053.5 55.9233C1068.04 63.1177 1079.48 73.7964 1086.5 88.1519H1086.5C1093.65 102.641 1095.06 118.734 1092.26 135.32C1090.64 144.949 1082.31 152 1072.54 152H1061.52C1064.37 154.498 1067 157.216 1069.37 160.173C1075.53 167.875 1079.68 176.661 1081.67 186.316H1081.67C1081.67 186.346 1081.68 186.376 1081.68 186.406C1081.69 186.435 1081.7 186.465 1081.7 186.495C1083.66 195.849 1083.58 205.516 1081.92 215.262C1079.11 231.942 1072.46 246.802 1061.61 259.149C1050.99 271.245 1037.42 280.057 1021.59 285.893C1005.8 291.714 988.199 294.386 969.132 294.386C949.621 294.386 931.821 291.502 916.37 284.94C916.33 284.923 916.291 284.905 916.251 284.888C900.141 277.922 887.517 266.755 879.696 251.301C879.674 251.258 879.652 251.214 879.631 251.17C871.707 235.225 870.634 216.643 873.828 197.171L873.907 196.72C875.675 187.285 883.921 180.409 893.563 180.409H903.852C890.645 165.726 887.338 146.826 890.527 127.202L890.53 127.186C893.247 110.549 900.191 95.7212 911.289 83.1606L911.295 83.1538C922.148 70.8813 935.721 61.6276 951.535 55.2153V55.2144C967.537 48.6863 984.893 45.5796 1003.34 45.5796Z" fill="#FE5C02" stroke="#FE5C02" stroke-width="40" stroke-linejoin="round"/>
<path d="M750.705 48.3636C756.582 48.3637 762.161 50.9483 765.961 55.431C769.761 59.914 771.397 65.8416 770.435 71.639L764.355 108.259L766.402 105.964L766.762 105.571C770.536 101.558 775.806 99.2728 781.33 99.2728H842.978C850.955 99.2728 858.169 104.013 861.335 111.335C864.501 118.658 863.013 127.161 857.548 132.973L803.776 190.159L837.312 263.702C840.135 269.893 839.616 277.095 835.936 282.818C832.256 288.541 825.919 292 819.115 292H756.274C748.186 292 740.894 287.129 737.797 279.658L736.42 276.337C734.403 285.439 726.318 292 716.899 292H662.012C656.135 292 650.556 289.415 646.756 284.932C642.956 280.449 641.32 274.522 642.283 268.725L676.089 65.0883L676.169 64.6381C677.952 55.2195 686.19 48.3637 695.819 48.3636H750.705Z" fill="#FE5C02" stroke="#FE5C02" stroke-width="40" stroke-linejoin="round"/>
<path d="M591.639 97.2841C608.88 97.2841 624.843 100.393 638.53 107.789L638.531 107.787C638.567 107.806 638.602 107.826 638.637 107.846C638.648 107.851 638.659 107.856 638.67 107.862L638.669 107.863C652.352 115.19 662.758 126.017 668.968 140.161C675.277 154.309 676.412 169.936 673.831 186.069C673.066 190.852 670.643 195.009 667.207 197.998C669.737 202.172 670.674 207.161 669.767 212.026C666.729 228.335 660.484 243.053 650.764 255.731C641.09 268.35 628.764 278.053 614.127 284.796C599.308 291.622 582.923 294.784 565.389 294.784C546.275 294.784 528.719 291.005 513.994 282.006C513.969 281.99 513.943 281.974 513.918 281.959C499.376 272.982 488.923 260.199 483.065 244.158C483.061 244.147 483.057 244.136 483.053 244.125C477.297 228.272 476.564 210.885 479.647 192.692H479.648C482.607 174.452 488.988 157.901 499.064 143.437L499.077 143.419C509.251 128.849 522.382 117.444 538.239 109.393V109.394C554.399 101.157 572.355 97.2841 591.639 97.2841ZM583.307 179.025C582.715 179.424 581.249 180.671 579.452 184.087C577.878 187.136 576.299 191.842 575.199 198.771C574.106 205.656 574.174 210.118 574.593 212.729C574.642 212.707 574.69 212.684 574.736 212.66C575.234 212.378 575.971 211.825 576.875 210.517C576.889 210.497 576.904 210.477 576.918 210.457C577.859 209.105 578.937 206.937 579.793 203.513C580.815 199.423 583.056 195.895 586.069 193.274C583.928 189.741 582.915 185.599 583.229 181.413C583.299 180.486 583.319 179.693 583.311 179.021C583.31 179.022 583.309 179.024 583.307 179.025Z" fill="#FE5C02" stroke="#FE5C02" stroke-width="40" stroke-linejoin="round"/>
<path d="M421.437 97.2841C433.837 97.2841 445.482 98.7516 456.074 102.083L456.073 102.084C466.291 105.232 475.611 109.919 483.426 116.576L483.425 116.577C491.195 123.074 497.138 131.133 500.625 140.71C500.629 140.72 500.634 140.731 500.638 140.742C500.664 140.814 500.691 140.886 500.717 140.958H500.716C504.257 150.575 504.896 160.645 503.207 170.697L485.708 275.3C484.096 284.938 475.754 292 465.982 292H414.675C410.236 292 405.968 290.524 402.507 287.871C399.391 289.233 396.169 290.37 392.848 291.278L392.849 291.28C385.174 293.397 377.171 294.387 368.937 294.387C357.124 294.387 345.829 292.45 335.665 287.804C335.595 287.772 335.525 287.739 335.456 287.706C324.627 282.604 316.14 274.494 310.87 263.623C310.834 263.55 310.799 263.478 310.765 263.405C305.345 251.872 304.915 239.031 307.064 226.469H307.065C308.825 215.967 312.268 206.151 317.876 197.544C321.173 192.486 325.014 187.93 329.387 183.926C328.545 183.176 327.762 182.351 327.048 181.456C323.254 176.696 321.833 170.467 323.19 164.532C326.068 151.939 331.941 140.551 340.39 130.48C340.393 130.476 340.397 130.473 340.401 130.469C349.314 119.861 360.771 111.841 374.103 106.096C388.2 99.981 404.168 97.2841 421.437 97.2841Z" fill="#FE5C02" stroke="#FE5C02" stroke-width="40" stroke-linejoin="round"/>
<path d="M327.822 97.2841C331.217 97.2841 334.603 97.5607 337.953 98.1503C340.873 98.5938 343.76 99.2009 346.607 99.9774C356.529 102.684 362.782 112.475 361.063 122.615L353.109 169.547C352.106 175.461 348.502 180.613 343.29 183.582C338.078 186.551 331.809 187.024 326.21 184.871C325.776 184.704 324.412 184.293 321.687 184.011C321.574 183.999 321.461 183.986 321.349 183.973C318.079 183.578 315.49 183.421 313.503 183.421C311.423 183.421 309.664 183.867 307.935 184.781C307.903 184.798 307.872 184.814 307.84 184.831C306.101 185.738 304.475 187.065 302.929 189.142C301.766 190.724 300.76 192.853 300.186 195.945L287.1 275.256C285.506 284.914 277.156 292 267.368 292H212.481C206.602 292 201.02 289.413 197.22 284.928C193.42 280.442 191.787 274.511 192.753 268.712L218.207 115.984L218.287 115.535C220.075 106.122 228.311 99.2726 237.935 99.2723H291.231C295.428 99.2723 299.473 100.593 302.827 102.98C310.568 99.246 318.956 97.2841 327.822 97.2841Z" fill="#FE5C02" stroke="#FE5C02" stroke-width="40" stroke-linejoin="round"/>
<path d="M240.546 48.3636C246.435 48.3638 252.024 50.9595 255.824 55.4584C259.624 59.9573 261.249 65.9023 260.264 71.7084L252.707 116.254C251.075 125.872 242.743 132.91 232.988 132.91H188.709L165.222 275.256C163.628 284.915 155.277 292 145.488 292H91C85.1266 292 79.55 289.418 75.75 284.94C71.9501 280.462 70.3106 274.539 71.2666 268.745L93.6797 132.91H56C50.1109 132.91 44.5208 130.314 40.7207 125.815C36.9206 121.316 35.2963 115.37 36.2812 109.564L43.8389 65.0189C45.4704 55.4015 53.8018 48.3637 63.5566 48.3636H240.546Z" fill="#FE5C02" stroke="#FE5C02" stroke-width="40" stroke-linejoin="round"/>
<path d="M2458.71 63.0041L2445.73 99.7861C2445.63 100.086 2445.34 100.287 2445.03 100.287H2401.95C2401.17 100.287 2400.91 101.335 2401.6 101.7L2437.44 120.575C2437.76 120.743 2437.92 121.115 2437.81 121.46L2423.1 169.195C2422.87 169.937 2423.79 170.495 2424.34 169.953L2458.89 136.345C2459.19 136.06 2459.65 136.063 2459.94 136.351L2493.78 169.946C2494.33 170.492 2495.24 169.947 2495.02 169.203L2481.02 121.454C2480.92 121.111 2481.07 120.746 2481.39 120.579L2517.24 101.7C2517.93 101.335 2517.67 100.287 2516.89 100.287H2473.82C2473.5 100.287 2473.21 100.086 2473.11 99.7861L2460.13 63.0041C2459.89 62.3368 2458.95 62.3368 2458.71 63.0041Z" fill="white"/>
<path d="M2248 274.784C2231.69 274.784 2218.17 271.669 2207.43 265.437C2196.69 259.14 2189.14 250.125 2184.76 238.392C2180.39 226.593 2179.59 212.473 2182.37 196.034C2185.03 180.258 2190.49 166.47 2198.78 154.67C2207.13 142.871 2217.64 133.69 2230.3 127.128C2243.03 120.565 2257.28 117.284 2273.06 117.284C2284.59 117.284 2294.7 119.074 2303.38 122.653C2312.13 126.233 2319.26 131.437 2324.76 138.264C2330.26 145.092 2333.97 153.345 2335.9 163.023C2337.89 172.634 2337.89 183.506 2335.9 195.636L2333.91 208.364H2197.49L2202.26 178.136H2288.17C2288.83 173.761 2288.4 169.917 2286.88 166.602C2285.42 163.222 2283.07 160.603 2279.82 158.747C2276.64 156.825 2272.79 155.864 2268.28 155.864C2263.78 155.864 2259.53 156.825 2255.56 158.747C2251.65 160.669 2248.3 163.354 2245.51 166.801C2242.8 170.248 2240.97 174.292 2240.04 178.932L2234.08 210.75C2233.28 215.655 2233.58 220.03 2234.97 223.875C2236.37 227.72 2238.79 230.736 2242.23 232.923C2245.68 235.111 2250.12 236.205 2255.56 236.205C2259.27 236.205 2262.78 235.707 2266.1 234.713C2269.48 233.652 2272.46 232.128 2275.04 230.139C2277.7 228.084 2279.82 225.598 2281.41 222.682H2331.52C2327.94 233.288 2322.27 242.502 2314.52 250.324C2306.83 258.08 2297.35 264.112 2286.08 268.42C2274.88 272.663 2262.18 274.784 2248 274.784Z" fill="white"/>
<path d="M1912.29 272L1937.75 119.273H1989.85L1985.08 148.307H1986.67C1991.37 138.761 1998.04 131.204 2006.65 125.636C2015.27 120.068 2024.92 117.284 2035.59 117.284C2046.26 117.284 2055.01 120.134 2061.84 125.835C2068.67 131.47 2072.11 138.96 2072.18 148.307H2073.77C2077.88 138.96 2084.61 131.47 2093.95 125.835C2103.3 120.134 2113.68 117.284 2125.08 117.284C2139.59 117.284 2150.63 121.99 2158.19 131.403C2165.81 140.816 2168.3 153.345 2165.64 168.989L2148.54 272H2093.66L2108.77 182.909C2109.7 176.214 2108.77 170.977 2105.99 167.199C2103.2 163.354 2098.96 161.432 2093.26 161.432C2087.62 161.432 2082.85 163.354 2078.94 167.199C2075.1 170.977 2072.71 176.214 2071.78 182.909L2056.67 272H2004.17L2019.28 182.909C2020.21 176.214 2019.28 170.977 2016.5 167.199C2013.71 163.354 2009.47 161.432 2003.77 161.432C2000.06 161.432 1996.68 162.294 1993.63 164.017C1990.64 165.74 1988.16 168.226 1986.17 171.474C1984.25 174.656 1982.96 178.468 1982.29 182.909L1967.18 272H1912.29Z" fill="white"/>
<path d="M1788.62 274.386C1778.95 274.386 1770.63 272.795 1763.67 269.614C1756.77 266.366 1751.74 261.46 1748.55 254.898C1745.44 248.269 1744.74 239.917 1746.47 229.841C1747.86 221.489 1750.48 214.363 1754.32 208.463C1758.17 202.563 1762.94 197.724 1768.64 193.946C1774.34 190.168 1780.74 187.284 1787.83 185.295C1794.99 183.24 1802.54 181.915 1810.5 181.318C1819.12 180.655 1826.11 179.827 1831.48 178.832C1836.85 177.838 1840.86 176.479 1843.51 174.756C1846.16 173.032 1847.75 170.712 1848.28 167.795V167.398C1848.88 163.42 1847.82 160.371 1845.1 158.25C1842.45 156.129 1838.74 155.068 1833.97 155.068C1828.79 155.068 1824.32 156.195 1820.54 158.449C1816.83 160.703 1814.28 164.216 1812.89 168.989H1762.37C1764.5 159.708 1768.84 151.157 1775.4 143.335C1782.03 135.447 1790.81 129.15 1801.75 124.443C1812.75 119.67 1825.88 117.284 1841.12 117.284C1852 117.284 1861.54 118.577 1869.76 121.162C1877.98 123.681 1884.77 127.227 1890.14 131.801C1895.58 136.309 1899.39 141.612 1901.58 147.71C1903.83 153.742 1904.36 160.305 1903.17 167.398L1885.67 272H1834.36L1837.94 250.523H1836.75C1832.77 256.223 1828.3 260.83 1823.33 264.344C1818.42 267.857 1813.05 270.409 1807.22 272C1801.45 273.591 1795.25 274.386 1788.62 274.386ZM1812.49 239.784C1816.6 239.784 1820.64 238.922 1824.62 237.199C1828.6 235.475 1832.01 232.99 1834.86 229.741C1837.71 226.493 1839.53 222.549 1840.33 217.909L1842.32 205.182C1840.86 205.778 1839.24 206.342 1837.45 206.872C1835.72 207.336 1833.9 207.8 1831.98 208.264C1830.12 208.728 1828.13 209.159 1826.01 209.557C1823.96 209.954 1821.83 210.352 1819.65 210.75C1815.27 211.413 1811.59 212.507 1808.61 214.031C1805.63 215.49 1803.31 217.312 1801.65 219.5C1799.99 221.621 1798.97 224.008 1798.57 226.659C1797.97 230.835 1798.93 234.083 1801.45 236.403C1804.04 238.657 1807.72 239.784 1812.49 239.784Z" fill="white"/>
<path d="M1684.3 135.58C1684.03 132.066 1683.3 128.984 1682.11 126.332C1680.91 123.615 1679.22 121.328 1677.04 119.472C1674.85 117.549 1672.13 116.124 1668.88 115.196C1665.7 114.202 1661.96 113.705 1657.65 113.705C1648.37 113.705 1639.92 115.925 1632.29 120.367C1624.67 124.808 1618.27 131.205 1613.1 139.557C1608 147.909 1604.48 157.985 1602.56 169.784C1600.57 181.716 1600.41 191.924 1602.07 200.409C1603.72 208.894 1607.3 215.39 1612.8 219.898C1618.37 224.405 1625.9 226.659 1635.38 226.659C1643.86 226.659 1651.18 225.433 1657.35 222.98C1663.51 220.528 1668.45 217.047 1672.16 212.54C1675.88 208.032 1678.2 202.729 1679.13 196.631L1688.67 197.625H1642.14L1648.5 158.25H1738.78L1734.21 186.489C1731.16 205.049 1724.6 220.925 1714.52 234.117C1704.51 247.242 1692.05 257.317 1677.14 264.344C1662.22 271.304 1645.85 274.784 1628.02 274.784C1608.26 274.784 1591.59 270.575 1578 262.156C1564.41 253.738 1554.7 241.74 1548.87 226.162C1543.1 210.584 1541.98 192.057 1545.49 170.58C1548.27 153.742 1553.31 138.828 1560.6 125.835C1567.96 112.843 1576.94 101.872 1587.55 92.9233C1598.15 83.9082 1609.85 77.1137 1622.65 72.5398C1635.44 67.8997 1648.7 65.5796 1662.42 65.5796C1674.42 65.5796 1685.32 67.3031 1695.13 70.7501C1704.94 74.1307 1713.33 78.9697 1720.29 85.2671C1727.25 91.4982 1732.45 98.8893 1735.9 107.44C1739.41 115.992 1740.84 125.371 1740.18 135.58H1684.3Z" fill="white"/>
<path d="M1352.99 272L1378.44 119.273H1431.74L1426.97 148.307H1428.56C1433.13 137.568 1438.86 129.713 1445.76 124.741C1452.65 119.77 1460.18 117.284 1468.33 117.284C1470.72 117.284 1473 117.483 1475.19 117.881C1477.44 118.212 1479.66 118.676 1481.85 119.273L1473.9 166.205C1471.31 165.21 1468.1 164.514 1464.25 164.116C1460.41 163.652 1456.99 163.42 1454.01 163.42C1448.71 163.42 1443.74 164.647 1439.1 167.099C1434.52 169.486 1430.61 172.866 1427.36 177.241C1424.18 181.55 1422.06 186.621 1421 192.455L1407.88 272H1352.99Z" fill="white"/>
<path d="M1229.72 274.386C1220.04 274.386 1211.72 272.795 1204.76 269.614C1197.87 266.366 1192.83 261.46 1189.65 254.898C1186.53 248.269 1185.84 239.917 1187.56 229.841C1188.95 221.489 1191.57 214.363 1195.41 208.463C1199.26 202.563 1204.03 197.724 1209.73 193.946C1215.43 190.168 1221.83 187.284 1228.92 185.295C1236.08 183.24 1243.64 181.915 1251.59 181.318C1260.21 180.655 1267.2 179.827 1272.57 178.832C1277.94 177.838 1281.95 176.479 1284.6 174.756C1287.26 173.032 1288.85 170.712 1289.38 167.795V167.398C1289.97 163.42 1288.91 160.371 1286.2 158.25C1283.54 156.129 1279.83 155.068 1275.06 155.068C1269.89 155.068 1265.41 156.195 1261.64 158.449C1257.92 160.703 1255.37 164.216 1253.98 168.989H1203.47C1205.59 159.708 1209.93 151.157 1216.49 143.335C1223.12 135.447 1231.91 129.15 1242.84 124.443C1253.85 119.67 1266.97 117.284 1282.22 117.284C1293.09 117.284 1302.63 118.577 1310.85 121.162C1319.07 123.681 1325.87 127.227 1331.24 131.801C1336.67 136.309 1340.48 141.612 1342.67 147.71C1344.93 153.742 1345.46 160.305 1344.26 167.398L1326.76 272H1275.46L1279.04 250.523H1277.84C1273.87 256.223 1269.39 260.83 1264.42 264.344C1259.51 267.857 1254.15 270.409 1248.31 272C1242.54 273.591 1236.35 274.386 1229.72 274.386ZM1253.58 239.784C1257.69 239.784 1261.74 238.922 1265.71 237.199C1269.69 235.475 1273.1 232.99 1275.95 229.741C1278.8 226.493 1280.63 222.549 1281.42 217.909L1283.41 205.182C1281.95 205.778 1280.33 206.342 1278.54 206.872C1276.82 207.336 1274.99 207.8 1273.07 208.264C1271.21 208.728 1269.23 209.159 1267.1 209.557C1265.05 209.954 1262.93 210.352 1260.74 210.75C1256.37 211.413 1252.69 212.507 1249.7 214.031C1246.72 215.49 1244.4 217.312 1242.74 219.5C1241.09 221.621 1240.06 224.008 1239.66 226.659C1239.06 230.835 1240.03 234.083 1242.54 236.403C1245.13 238.657 1248.81 239.784 1253.58 239.784Z" fill="white"/>
<path d="M1190.62 119.273L1183.86 159.045H1083.23L1089.99 119.273H1190.62ZM1115.45 82.6818H1170.33L1147.07 222.881C1146.73 225.002 1146.8 226.792 1147.26 228.25C1147.73 229.642 1148.66 230.703 1150.05 231.432C1151.51 232.095 1153.43 232.426 1155.82 232.426C1157.41 232.426 1159.36 232.227 1161.68 231.829C1164 231.365 1165.76 231.034 1166.95 230.835L1168.54 269.415C1165.76 270.21 1162.01 271.105 1157.31 272.099C1152.67 273.16 1147.26 273.856 1141.1 274.187C1128.24 274.784 1117.77 273.425 1109.68 270.111C1101.66 266.796 1096.09 261.626 1092.97 254.599C1089.93 247.507 1089.39 238.657 1091.38 228.051L1115.45 82.6818Z" fill="white"/>
<path d="M1019.64 132C1020.24 125.438 1018.65 120.3 1014.87 116.588C1011.09 112.81 1004.73 110.921 995.78 110.921C990.079 110.921 985.306 111.583 981.462 112.909C977.683 114.235 974.733 116.058 972.612 118.378C970.557 120.698 969.265 123.383 968.734 126.432C968.138 128.818 968.171 131.006 968.834 132.994C969.563 134.917 970.922 136.673 972.91 138.264C974.965 139.855 977.65 141.28 980.964 142.54C984.345 143.799 988.356 144.926 992.996 145.921L1008.9 149.5C1019.78 151.886 1028.89 155.035 1036.25 158.946C1043.67 162.791 1049.51 167.365 1053.75 172.668C1057.99 177.971 1060.78 183.903 1062.1 190.466C1063.49 197.028 1063.53 204.188 1062.2 211.943C1059.95 225.333 1054.74 236.669 1046.59 245.949C1038.44 255.229 1027.8 262.289 1014.67 267.128C1001.55 271.967 986.367 274.386 969.132 274.386C951.5 274.386 936.518 271.768 924.189 266.531C911.926 261.228 903.043 253.141 897.541 242.27C892.106 231.332 890.78 217.379 893.564 200.409H946.064C945.268 206.64 945.931 211.877 948.053 216.119C950.174 220.362 953.588 223.577 958.294 225.764C963 227.952 968.867 229.046 975.893 229.046C981.859 229.046 986.964 228.316 991.206 226.858C995.448 225.4 998.796 223.378 1001.25 220.793C1003.7 218.207 1005.19 215.258 1005.72 211.943C1006.25 208.894 1005.72 206.176 1004.13 203.79C1002.54 201.403 999.658 199.249 995.482 197.327C991.305 195.404 985.571 193.648 978.28 192.057L958.791 187.682C941.49 183.705 928.431 177.142 919.615 167.994C910.799 158.847 907.683 146.318 910.268 130.409C912.39 117.417 917.726 106.081 926.277 96.4035C934.894 86.6591 945.832 79.1023 959.089 73.733C972.413 68.2974 987.162 65.5796 1003.34 65.5796C1019.78 65.5796 1033.53 68.3305 1044.6 73.8324C1055.74 79.3343 1063.72 87.0569 1068.56 97.0001C1073.47 106.943 1074.79 118.61 1072.54 132H1019.64Z" fill="white"/>
<path d="M717.296 235.807L728.433 170.58H735.592L781.33 119.273H842.978L767.808 199.216H752.296L717.296 235.807ZM662.012 272L695.819 68.3636H750.705L716.898 272H662.012ZM756.273 272L731.217 211.545L773.773 172.568L819.114 272H756.273Z" fill="white"/>
<path d="M565.389 274.784C548.817 274.784 535.162 271.503 524.423 264.94C513.685 258.312 506.161 249.097 501.852 237.298C497.544 225.433 496.715 211.678 499.366 196.034C501.885 180.39 507.255 166.669 515.474 154.869C523.76 143.004 534.366 133.79 547.293 127.227C560.285 120.598 575.067 117.284 591.639 117.284C606.62 117.284 619.116 120.002 629.125 125.437C639.201 130.807 646.393 138.43 650.702 148.307C655.077 158.117 656.204 169.651 654.082 182.909H603.173C603.77 174.955 602.477 168.856 599.295 164.614C596.18 160.371 591.639 158.25 585.673 158.25C580.768 158.25 576.26 159.642 572.151 162.426C568.107 165.144 564.627 169.287 561.71 174.855C558.86 180.357 556.772 187.284 555.446 195.636C554.12 203.989 553.955 210.949 554.949 216.517C556.009 222.019 558.064 226.162 561.114 228.946C564.229 231.664 568.173 233.023 572.946 233.023C577.056 233.023 580.834 232.095 584.281 230.239C587.794 228.316 590.811 225.532 593.33 221.886C595.915 218.174 597.87 213.667 599.196 208.364H650.105C647.586 221.886 642.515 233.619 634.892 243.562C627.269 253.506 617.558 261.195 605.759 266.631C593.959 272.066 580.503 274.784 565.389 274.784Z" fill="white"/>
<path d="M368.937 274.386C359.259 274.386 350.94 272.795 343.979 269.614C337.085 266.366 332.048 261.46 328.866 254.898C325.75 248.269 325.054 239.917 326.778 229.841C328.17 221.489 330.788 214.363 334.633 208.463C338.477 202.563 343.25 197.724 348.951 193.946C354.652 190.168 361.049 187.284 368.141 185.295C375.3 183.24 382.857 181.915 390.812 181.318C399.429 180.655 406.423 179.827 411.792 178.832C417.161 177.838 421.172 176.479 423.823 174.756C426.475 173.032 428.066 170.712 428.596 167.795V167.398C429.192 163.42 428.132 160.371 425.414 158.25C422.763 156.129 419.05 155.068 414.278 155.068C409.107 155.068 404.633 156.195 400.854 158.449C397.142 160.703 394.59 164.216 393.198 168.989H342.687C344.808 159.708 349.15 151.157 355.712 143.335C362.341 135.447 371.124 129.15 382.062 124.443C393.066 119.67 406.191 117.284 421.437 117.284C432.308 117.284 441.853 118.577 450.073 121.162C458.293 123.681 465.087 127.227 470.457 131.801C475.892 136.309 479.704 141.612 481.891 147.71C484.145 153.742 484.675 160.305 483.482 167.398L465.982 272H414.675L418.255 250.523H417.062C413.084 256.223 408.61 260.83 403.638 264.344C398.733 267.857 393.364 270.409 387.531 272C381.763 273.591 375.566 274.386 368.937 274.386ZM392.8 239.784C396.91 239.784 400.954 238.922 404.931 237.199C408.908 235.475 412.322 232.99 415.173 229.741C418.023 226.493 419.846 222.549 420.641 217.909L422.63 205.182C421.172 205.778 419.548 206.342 417.758 206.872C416.034 207.336 414.211 207.8 412.289 208.264C410.433 208.728 408.444 209.159 406.323 209.557C404.268 209.954 402.147 210.352 399.959 210.75C395.584 211.413 391.906 212.507 388.923 214.031C385.94 215.49 383.62 217.312 381.962 219.5C380.305 221.621 379.278 224.008 378.88 226.659C378.283 230.835 379.245 234.083 381.763 236.403C384.349 238.657 388.028 239.784 392.8 239.784Z" fill="white"/>
<path d="M212.481 272L237.935 119.273H291.231L286.458 148.307H288.049C292.623 137.568 298.357 129.713 305.251 124.741C312.145 119.77 319.668 117.284 327.822 117.284C330.208 117.284 332.495 117.483 334.683 117.881C336.936 118.212 339.157 118.676 341.344 119.273L333.39 166.205C330.805 165.21 327.59 164.514 323.745 164.116C319.9 163.652 316.486 163.42 313.504 163.42C308.201 163.42 303.229 164.647 298.589 167.099C294.015 169.486 290.104 172.866 286.856 177.241C283.674 181.55 281.553 186.621 280.492 192.455L267.367 272H212.481Z" fill="white"/>
<path d="M56 112.909L63.5568 68.3636H240.545L232.989 112.909H171.739L145.489 272H91L117.25 112.909H56Z" fill="white"/>
</svg>
