<svg width="400" height="400" viewBox="0 0 400 400" fill="none" xmlns="http://www.w3.org/2000/svg" shape-rendering="geometricPrecision">
<rect width="400" height="400" rx="200" fill="#FE5C02"/>
<path d="M261.293 178.007L250.947 207.353C250.842 207.653 250.558 207.854 250.24 207.854H216.031C215.248 207.854 214.988 208.902 215.681 209.267L244.096 224.249C244.415 224.418 244.569 224.789 244.463 225.133L232.749 263.193C232.521 263.936 233.433 264.493 233.989 263.951L261.471 237.189C261.765 236.903 262.233 236.906 262.523 237.194L289.432 263.944C289.981 264.49 290.898 263.945 290.68 263.201L279.527 225.128C279.426 224.785 279.581 224.42 279.896 224.253L308.319 209.267C309.012 208.902 308.752 207.854 307.969 207.854H273.76C273.442 207.854 273.158 207.653 273.053 207.353L262.707 178.007C262.472 177.339 261.528 177.339 261.293 178.007Z" fill="white"/>
<path d="M100.5 97L89 146.5H138L101.5 302H164.5L201 146.5H250L261 97H100.5Z" fill="white"/>
</svg>
